<?xml version="1.0" encoding="UTF-8" standalone="no"?>
<svg
   xmlns:dc="http://purl.org/dc/elements/1.1/"
   xmlns:cc="http://creativecommons.org/ns#"
   xmlns:rdf="http://www.w3.org/1999/02/22-rdf-syntax-ns#"
   xmlns:svg="http://www.w3.org/2000/svg"
   xmlns="http://www.w3.org/2000/svg"
   xmlns:xlink="http://www.w3.org/1999/xlink"
   xmlns:sodipodi="http://sodipodi.sourceforge.net/DTD/sodipodi-0.dtd"
   xmlns:inkscape="http://www.inkscape.org/namespaces/inkscape"
   style="enable-background:new 0 0 499.997 499.997;"
   version="1.1"
   viewBox="0 0 499.997 499.997"
   xml:space="preserve"
   id="svg29"
   sodipodi:docname="1485054511_modem.svg"
   inkscape:version="0.92.0 unknown"><metadata
     id="metadata35"><rdf:RDF><cc:Work
         rdf:about=""><dc:format>image/svg+xml</dc:format><dc:type
           rdf:resource="http://purl.org/dc/dcmitype/StillImage" /></cc:Work></rdf:RDF></metadata><defs
     id="defs33" /><sodipodi:namedview
     pagecolor="#ffffff"
     bordercolor="#666666"
     borderopacity="1"
     objecttolerance="10"
     gridtolerance="10"
     guidetolerance="10"
     inkscape:pageopacity="0"
     inkscape:pageshadow="2"
     inkscape:window-width="1280"
     inkscape:window-height="949"
     id="namedview31"
     showgrid="false"
     inkscape:measure-start="831.911,787.54"
     inkscape:measure-end="845.7,787.54"
     inkscape:zoom="0.70710678"
     inkscape:cx="230.04244"
     inkscape:cy="209.15979"
     inkscape:window-x="0"
     inkscape:window-y="25"
     inkscape:window-maximized="1"
     inkscape:current-layer="svg29" /><g
     id="Layer_1" /><g
     id="g5019"
     inkscape:export-filename="/home/borfast/projects/ArrispwgenAndroid/arrispwgen-android.png"
     inkscape:export-xdpi="300"
     inkscape:export-ydpi="300"
     transform="translate(-531.74429,442.64884)"><circle
       r="269.9353"
       cy="-187.35268"
       cx="783.78314"
       id="path4560"
       style="opacity:1;fill:#607d8b;fill-opacity:1;stroke:none;stroke-width:5.44366407;stroke-miterlimit:4;stroke-dasharray:none;stroke-opacity:1" /><g
       id="g4999"><path
         id="path4582"
         d="m 670.52785,-194.60398 c 10.83399,0 19.69817,-8.86417 19.69817,-19.69817 0,-10.83398 -8.86418,-19.69816 -19.69817,-19.69816 -10.83399,0 -19.69816,8.86418 -19.69816,19.69816 0,10.834 8.86417,19.69817 19.69816,19.69817 z m 59.09449,-88.64173 h -9.84908 v -19.69817 c 0,-27.18345 -22.06194,-49.24541 -49.24541,-49.24541 -27.18346,0 -49.2454,22.06196 -49.2454,49.24541 h 18.71326 c 0,-16.84192 13.69022,-30.53215 30.53214,-30.53215 16.84194,0 30.53216,13.69023 30.53216,30.53215 v 19.69817 h -89.62664 c -10.83399,0 -19.69817,8.86416 -19.69817,19.69816 v 98.49081 c 0,10.83399 8.86418,19.69817 19.69817,19.69817 h 118.18897 c 10.83399,0 19.69817,-8.86418 19.69817,-19.69817 v -98.49081 c 0,-10.834 -8.86418,-19.69816 -19.69817,-19.69816 z m 0,118.18897 H 611.43337 v -98.49081 h 118.18897 z"
         inkscape:connector-curvature="0"
         style="fill:#213242;fill-opacity:1;stroke-width:9.84908009" /><g
         id="g4981"><g
           id="g4965"><g
             id="g4956"><path
               sodipodi:nodetypes="ccssssssc"
               id="path4564-7"
               d="M 933.4232,-130.24174 H 636.56816 c -23.32433,0 -42.40787,19.08353 -42.40787,42.407867 v 29.65251 c 0,23.324325 19.08354,42.407872 42.40787,42.407872 H 933.4232 c 23.32433,0 42.40787,-19.083547 42.40787,-42.407872 v -29.65251 c 0,-23.324337 -19.08354,-42.407867 -42.40787,-42.407867 z"
               inkscape:connector-curvature="0"
               style="fill:#3d4f5d;fill-opacity:1;stroke-width:21.20393181" /><path
               id="path4564"
               d="m 636.56836,-130.24219 c -18.57131,0 -34.44255,12.10421 -40.14453,28.8086 h 228.38281 v 56.851559 H 596.42383 c 5.70198,16.704387 21.57322,28.808593 40.14453,28.808593 h 296.85547 c 23.32433,0 42.4082,-19.083878 42.4082,-42.408203 v -29.652343 c 0,-23.324336 -19.08387,-42.408206 -42.4082,-42.408206 z"
               style="fill:#263b4c;fill-opacity:1;stroke-width:21.20393181"
               inkscape:connector-curvature="0" /></g><g
             id="g4773"
             transform="matrix(1.5323115,0,0,1.5323115,-379.99786,148.65291)"><rect
               y="-151.47968"
               x="657.25781"
               height="13.644106"
               width="25"
               id="rect4609"
               style="opacity:1;fill:#86bc43;fill-opacity:1;stroke:none;stroke-width:5.41061401;stroke-miterlimit:4;stroke-dasharray:none;stroke-opacity:1" /><rect
               y="-151.47968"
               x="697.39789"
               height="13.644106"
               width="25"
               id="rect4609-3"
               style="opacity:1;fill:#fca100;fill-opacity:1;stroke:none;stroke-width:5.41061401;stroke-miterlimit:4;stroke-dasharray:none;stroke-opacity:1" /><rect
               y="-151.47968"
               x="737.5379"
               height="13.644106"
               width="25"
               id="rect4609-3-2"
               style="opacity:1;fill:#d50004;fill-opacity:1;stroke:none;stroke-width:5.41061401;stroke-miterlimit:4;stroke-dasharray:none;stroke-opacity:1" /></g></g><g
           transform="matrix(1.5323115,0,0,1.5323115,-379.99786,148.65291)"
           id="g4762"><path
             inkscape:connector-curvature="0"
             id="path4-7"
             style="fill:#0e2431;fill-opacity:1"
             d="m 840.57722,-191.8783 h -2.775 v -4.317 c 0,-3.061 -2.489,-5.54 -5.545,-5.54 h -7.383 l -1.562,-73.297 c 5.02,-1.955 8.6,-6.83 8.6,-12.559 0,-7.456 -6.049,-13.51 -13.515,-13.51 -7.455,0 -13.5,6.054 -13.5,13.51 0,5.729 3.57,10.604 8.591,12.559 l -1.562,73.297 h -7.388 c -3.061,0 -5.53,2.479 -5.53,5.54 v 4.317 h -2.78 c -3.07,0 -5.54,2.484 -5.54,5.549 v 4.764 h 55.42601 v -4.764 c 0.002,-3.065 -2.47201,-5.549 -5.53701,-5.549 z" /><g
             id="g4745"><path
               d="m 766.94222,-331.2543 c -17.424,27.267 -16.333,61.063 0,86.637 l 12.782,-8.169 c -13.257,-20.748 -14.14,-48.16 0,-70.285 z"
               style="fill:#98cefb;fill-opacity:1"
               id="path6-5"
               inkscape:connector-curvature="0" /><path
               d="m 783.29222,-314.3973 c -10.638,16.644 -9.974,37.313 0,52.938 l 12.631,-8.072 c -6.941,-10.856 -7.393,-25.205 0,-36.794 z"
               style="fill:#77befb;fill-opacity:1"
               id="path8-3"
               inkscape:connector-curvature="0" /></g><use
             x="0"
             y="0"
             xlink:href="#g4745"
             id="use4747"
             transform="matrix(-1,0,0,1,1636.7337,0)"
             width="100%"
             height="100%" /></g></g></g></g></svg>